<svg width="160" height="160" viewBox="0 0 160 160" fill="none" xmlns="http://www.w3.org/2000/svg">
<path d="M159.07 79.533C159.07 100.976 150.582 120.44 136.786 134.741C122.319 149.738 102.019 159.066 79.537 159.066C57.055 159.066 36.746 149.738 22.288 134.737C8.484 120.436 0 100.972 0 79.533C0 35.607 35.612 0 79.537 0C123.463 0 159.07 35.607 159.07 79.533Z" fill="#ABABAB"/>
<path d="M107.725 62.7739H67.4001V30.8229L89.5259 29.782C99.0259 34.282 106.526 36.782 107.725 45.2349C108.924 53.6878 107.725 62.7739 107.725 62.7739Z" fill="#626262"/>
<path d="M72.0259 28.782C72.0259 28.782 66.0016 29.954 62.0259 31.782C58.0502 33.61 53.5259 36.782 51.3452 43.6539C49.1645 50.5258 51.3452 62.7729 51.3452 62.7729L62.5502 55.0459L72.0259 28.782Z" fill="#626262"/>
<path d="M107.725 59.83C107.725 77.58 95.105 91.9699 79.535 91.9699C66.445 91.9699 55.445 81.8 52.275 68.02C51.665 65.41 51.345 62.66 51.345 59.83C51.345 42.09 63.965 27.7 79.535 27.7C95.105 27.7 107.725 42.09 107.725 59.83Z" fill="#626262"/>
<path d="M136.799 134.747C131.809 139.917 126.119 144.417 119.899 148.077C119.729 148.177 119.549 148.287 119.369 148.387C107.659 155.177 94.0591 159.067 79.5491 159.067C65.4791 159.067 52.2591 155.417 40.7991 149.007C40.2691 148.707 39.7491 148.407 39.2291 148.107C32.9891 144.417 27.2791 139.917 22.2991 134.737L23.6691 129.347C25.7291 121.227 32.1291 114.927 40.2691 112.977L42.7791 112.377L44.4691 111.977L52.5391 110.047L53.6391 109.787L53.8891 109.727C55.0491 109.457 56.1591 109.057 57.2091 108.547C59.0191 107.687 60.6391 106.497 61.9991 105.057C63.9191 103.057 65.3291 100.567 66.0391 97.787L67.0991 93.657L67.3891 92.547L67.4091 92.467L68.7591 87.217L69.1691 85.647H89.9191L91.4591 91.647L91.5991 92.177L91.6791 92.487L91.6991 92.557L91.9891 93.677L93.0391 97.787C94.2791 102.597 97.5991 106.527 101.989 108.607H101.999C103.019 109.087 104.089 109.457 105.199 109.727L106.539 110.047L106.609 110.067L115.789 112.257L116.369 112.397L118.819 112.977C126.959 114.927 133.359 121.227 135.419 129.347L136.799 134.747Z" fill="#ECECEC"/>
<path d="M91.6712 92.48C89.9112 100.21 85.1462 105.754 79.5402 105.754C73.9302 105.754 69.1561 100.198 67.4001 92.459L68.7542 87.209L69.1602 85.64H89.9082L91.4521 91.64L91.5932 92.178L91.6712 92.48Z" fill="#88898D"/>
<path d="M56.3301 63.065C45.9991 51.473 52.8921 79.8111 58.6071 76.4991C68.6531 70.6771 56.3301 63.065 56.3301 63.065Z" fill="#ECECEC"/>
<path d="M102.738 63.065C113.069 51.473 106.176 79.8111 100.461 76.4991C90.415 70.6771 102.738 63.065 102.738 63.065Z" fill="#ECECEC"/>
<path d="M103.569 54.707C103.569 55.587 103.519 56.457 103.429 57.307C103.369 57.927 103.139 60.087 102.749 63.027L102.739 63.067C101.659 71.097 99.329 84.877 95.649 88.547C93.009 91.197 90.879 93.587 88.469 95.327C86.049 97.067 83.339 98.137 79.539 98.137H79.529C71.939 98.137 68.709 93.827 63.429 88.547C60.789 85.907 58.839 78.057 57.539 70.867C57.479 70.527 57.419 70.177 57.369 69.847C57.189 68.777 57.019 67.717 56.859 66.707C56.029 61.337 55.629 57.137 55.629 57.137C55.549 56.337 55.509 55.527 55.509 54.707C55.509 54.497 55.509 54.287 55.519 54.077C55.569 52.187 55.829 50.347 56.289 48.587C56.309 48.507 56.339 48.427 56.359 48.347C59.029 38.587 67.699 31.307 78.159 30.717C78.619 30.687 79.069 30.677 79.529 30.677H79.539C92.809 30.677 103.569 41.437 103.569 54.707Z" fill="#ECECEC"/>
<path d="M83.55 86.583C83.55 88.242 81.86 89.586 79.77 89.586C77.69 89.586 76 88.242 76 86.583C76 86.384 76.02 86.186 76.08 86C76.41 87.378 77.94 88.42 79.77 88.42C81.61 88.42 83.14 87.378 83.47 86C83.53 86.185 83.55 86.384 83.55 86.583Z" fill="#ABABAB"/>
<path d="M104.199 54.864C104.199 55.767 104.148 56.66 104.055 57.532C103.994 58.168 102.738 63.064 102.738 63.064C78.2732 61.986 67.8912 50.3489 67.8912 50.3489C63.5812 63.0019 56.8592 66.7069 56.8592 66.7069C56.0072 61.1959 55.0022 57.3579 55.0022 57.3579C54.9202 56.5369 54.8792 55.706 54.8792 54.864C54.8792 54.648 54.8792 54.433 54.8892 54.218C54.9402 52.278 55.2072 50.39 55.6792 48.584C55.7002 48.502 55.7302 48.42 55.7512 48.338C58.4912 38.322 67.3881 30.8509 78.1221 30.2459C78.5941 30.2149 79.0562 30.205 79.5282 30.205H79.5381C93.1561 30.205 104.199 41.247 104.199 54.864Z" fill="#626262"/>
<path d="M68.1942 79.2589C63.3732 79.2589 59.4512 75.337 59.4512 70.516C59.4512 65.695 63.3732 61.7729 68.1942 61.7729C73.0152 61.7729 76.9372 65.695 76.9372 70.516C76.9372 75.337 73.0152 79.2589 68.1942 79.2589ZM68.1942 62.774C63.9242 62.774 60.4512 66.2469 60.4512 70.5169C60.4512 74.7869 63.9252 78.2599 68.1942 78.2599C72.4642 78.2599 75.9372 74.7869 75.9372 70.5169C75.9362 66.2469 72.4632 62.774 68.1942 62.774Z" fill="#88898D"/>
<path d="M91.0802 79.2589C86.2592 79.2589 82.3372 75.337 82.3372 70.516C82.3372 65.695 86.2592 61.7729 91.0802 61.7729C95.9012 61.7729 99.8232 65.695 99.8232 70.516C99.8232 75.337 95.9002 79.2589 91.0802 79.2589ZM91.0802 62.774C86.8112 62.774 83.3372 66.2469 83.3372 70.5169C83.3372 74.7869 86.8112 78.2599 91.0802 78.2599C95.3502 78.2599 98.8232 74.7869 98.8232 70.5169C98.8222 66.2469 95.3492 62.774 91.0802 62.774Z" fill="#88898D"/>
<path d="M83.3373 70.5159H82.3373C82.3373 69.0269 81.1263 67.8159 79.6373 67.8159C78.1483 67.8159 76.9373 69.0269 76.9373 70.5159H75.9373C75.9373 68.4749 77.5973 66.8159 79.6373 66.8159C81.6773 66.8159 83.3373 68.4759 83.3373 70.5159Z" fill="#88898D"/>
<path d="M136.799 134.747C131.809 139.917 126.119 144.417 119.899 148.077C119.729 148.177 119.549 148.287 119.369 148.387C113.269 151.927 106.649 154.677 99.6591 156.497C93.2391 158.177 86.4991 159.067 79.5491 159.067C72.6591 159.067 65.9791 158.197 59.6091 156.537C52.9591 154.837 46.6491 152.277 40.7991 149.007C40.2691 148.707 39.7491 148.407 39.2291 148.107C32.9891 144.417 27.2791 139.917 22.2991 134.737L23.6691 129.347C25.7291 121.227 32.1291 114.927 40.2691 112.977L42.7791 112.377L44.4691 111.977L52.5391 110.047L53.6391 109.787L53.8891 109.727C55.0491 109.457 56.1591 109.057 57.2091 108.547L57.2391 108.557L65.7891 117.107C67.6291 118.937 69.7891 120.377 72.1391 121.357C74.4891 122.327 77.0391 122.847 79.6391 122.847C84.8291 122.847 89.8091 120.777 93.4891 117.107L101.989 108.607H101.999C103.019 109.087 104.089 109.457 105.199 109.727L106.539 110.047L106.609 110.067L115.789 112.257L116.369 112.397L118.819 112.977C126.959 114.927 133.359 121.227 135.419 129.347L136.799 134.747Z" fill="#626262"/>
</svg>
